<svg width="320" height="480" viewBox="0 0 320 480" fill="none" xmlns="http://www.w3.org/2000/svg">
  <path
    d="M176 20C148 34 128 52 118 78C108 104 108 128 96 152C84 178 62 196 60 222C58 248 74 272 86 298C98 324 96 356 112 382C128 408 156 426 186 438C216 450 238 456 258 448C278 440 288 422 284 394C280 366 262 344 256 320C250 296 262 268 254 246C246 224 220 206 210 182C200 158 206 132 200 106C194 80 190 54 176 20Z"
    stroke="currentColor"
    stroke-width="3"
    stroke-linecap="round"
    stroke-linejoin="round"
  />
  <circle cx="212" cy="358" r="6" fill="currentColor" />
  <circle cx="188" cy="248" r="6" fill="currentColor" />
  <path
    d="M36 254C56 242 78 238 100 238"
    stroke="currentColor"
    stroke-width="2"
    stroke-linecap="round"
    opacity="0.5"
  />
</svg>
