<?xml version="1.0" encoding="UTF-8"?>
<svg id="Layer_1" data-name="Layer 1" xmlns="http://www.w3.org/2000/svg" viewBox="0 0 166.77 128.74">
  <path d="M70.37,75.04c-.06.3-.51.97-.85,1.05-.92.21-.95-.4-1.38-.45-.31-.03-.97.43-1.41.2-.5-.8-.3-1.67-.46-2.51-.11-.61-.56-1.2-.69-1.81l-.26-.07c-.39.74-.95,1.37-1.4,2.08-.42.65-.38,1.22-1.14,1.76s-3.57,1.15-3.67-.12c.23-.86.05-1.77.17-2.62.11-.77.86-2.14,1.14-3.03.36-1.15.3-2.34,1.57-2.97.27-.14,2.95-.96,3.29-1.01,1.39-.22,3.08.31,4.51.09.84-.13,1.57-1.08,2.44-1.23,1.29-.22,2.6.37,3.82-.09-.46-.49-1.7-1.01-2.37-1.04-.8-.04-1.76.35-2.49.36-.87.01-2.01-.23-2.93-.22-1.37.02-2.76.36-4.15.21-.96-.1-1.89-.8-2.82-1.03l-.02-.49c1.01.15,1.28-.49,1.93-.92.81-.53,2.05-.83,2.62-1.55.11-.14.74-1.29.74-1.37l-.81-1.23c-1.67.27-1.53,2.42-2.83,2.98-.55.23-3.38.32-3.89.11-.69-.28.32-.92.35-1.31-1.79,1.08-.9,3.13-.88,4.73.01.58-.07,1.69-.13,2.28-.08.73-.2,1.48-1.1,1.11-.39-.16-.51-.6-.76-.79-1.03-.81-2.55-1.34-3.56-2.09-.43-.33-.79-.87-1.21-1.19-.78-.6-3.48-2.18-3.48-3.22,0-.19.39-1.1.51-1.24.92-1.14,5.15,1.13,4.68-1.73-1.42-.07-3.99.57-5.12-.5-1.07-1,.14-1.43.99-1.92.79-.45,3.12-1.32,3.47-1.97.52-.98.66-2.31-.41-2.94-.48.56-.64,1.3-.57,2.02-.09.09-2.28-.17-2.56-.28-.64-.26-.98-2.22-1.03-2.88-.35-.44-1.58.28-1.69.6-.29.84.28,3.21-.15,3.99l-.16.13c-.33.03-.72.22-1.04.2-1.14-.05-4.86-3.17-5.4-4.2-.23-.43-.27-1-.46-1.44-.7-1.61-1.59-2.41-.97-4.34.44-1.36,2.29-.96,3.33-1.15.16-.18-.1-2.09-.37-2.32-.35-.29-1.04-.11-1.42-.22-.31-.09-.39-.51-.6-.66-.38-.28-1.95-.19-2.08.29-.21.77-.26,2.59-.88,3.17-.28.26-2.31.44-2.75.35s-2.38-1.65-2.46-1.95c-.14-.47.29-2.74.61-3,.14-.11.46-.06.5-.32-1.83.23-2.58,1.99-4.55.83-.9-.53-.46-.84.13-1.4-1.61.03-3.36.94-4.66,1.91-.65.48-2.27,2.16-2.88,2.3-1.12.26-3.68-1.18-3.22-2.47l3.54-5.43,1.17-2.49c-1.24-.73-2.45-1.97-3.97-1.22-.18-.05-.36-.75-.53-1-.75-1.08-2.23-.57-3.34-.7-.18-.13-.13-.28-.07-.45.18-.53.92-1.77,1.43-1.99.7-.3,2.19-.74,2.96-.95,2.21-.6,4.81-.85,7.1-.45,1.53.27,3.03,3.14,4.11,3.35.5.1,1.09-.44,1.59-.58.37-.45-1.94-3.37-2.41-3.79-.44-.39-3.02-1.81-3.54-1.89-.85-.13-.97.27-1.57.44-1.48.41-3.83,1.25-5.24,1.2-1.16-.04-2.36-.6-3.4,0-.58-.56.38-1.45.82-1.81.56-.46,1.31-.63,1.73-1.16.07-.36-1.31-2.23-1.7-2.28-.2-.03-.45.11-.61.22-.22.15-1.43,1.3-1.63,1.53-.67.77-1.64,4.17-3.36,3.33-.39-.19-1.56-3.11-1.87-3.68s-1.36-2.36-1.73-2.82c-.84-1.04-3.59-2.19-2.21-3.92-.57-.12-1.77-.21-2.07-.77-.28-.51-.26-1.79-.58-2.58-.24-.61-.61-.97-.87-1.53C.5,6.43-.24,3.61.08,3.1c.47-.35.73.72,1.27.65,1.12-.26,2.4-.16,3.5-.43.97-.24.58-.41,1.02-.81.28-.25,1.14-.39,1.54-.42.95-.08,1.96.22,2.82-.03.4-1.44,2.31-.68,3.5-.86s3.6-1.98,4.62-.82c.44.51.36,1.3.92,1.61,2.65,1.07,5.67,1.48,8.3,2.57,1.77.73,1.73,1.7,2.94,2.36.88.48,1.07.35,1.93.37.65.02,1.54,1.35,1.67,1.97.07.37-.07.78.15,1.12.19.28,2.9,2.25,3.38,2.56,1.09.7.94.52,2.07.71.91.15,2.38,1.08,3.38,1.42,1.45.5,5.39,1.67,6.79,1.69,1.04.01,2.43-.72,3.3.16.16.16.24.46.42.65,1.97,2.05,3.89,3.56,6.88,3.6.08,0,.21.04.19-.06l-.38-.5c.09-.12.17-.18.32-.2.42-.06,1.97.47,2.64.52,2.17.16,4.13-.15,6.19-.14,2.76,0,3.8,1.44,6.04,2.56,1.2.6,2.52,1,3.74,1.56l1.31-.68c1.07.87,2.41,1.01,3.59,1.48.44.17,1.04.71,1.37.78.84.16,2.58-.24,3.53-.25.65,0,2.71.03,3.23.19.4.12,1.51,1.02,1.98,1.31,1,.61,3.05,1.6,3.49,2.7.38.97,1.52,4.55,1.6,5.47.11,1.27-.1,1.4-1.26,1.77,1.18,1.19,2.68,2.03,3.92,3.16,2.04,1.86,1.93,3.94,3.09,6.26,2.18,4.37,5.02,6.69,8.53,9.78.3.26,2.3,2.16,2.37,2.31.19.38.08.95-.16,1.29-.1.14-1.15.76-1.33.82-.64.21-1.66-.08-2.34-.18-.17-.02-.24,0-.18.18.08.25,1.27,1.87,1.52,2.15.66.75,1.3.81,1.49,1.94.04.23-.08.43-.04.66.08.43,1.54,4.2,1.78,4.54.34.49,1.41.97,1.89,1.39.4-.02-.16-1.53,1.65-1.01s3.01,1.93,4.49,2.97c2.49,1.75,5.59,2.35,8.07,4.18,1.4.26,6.28-.54,7.24.18.72.54-.46,2.19-.99,2.54-.33.22-1.31.27-.89.89.26.38,4.47.81,5.19.88s2.14-.26,2.41.63c.24.8-1,1.81-.93,2.19.43,1.07,1.21,1.47,2.19,1.98.15-.21-.05-.5-.01-.76.09-.58.84-1.27,1.46-1.2.84,1.26,1.8,2.45,2.58,3.74.96,1.59,1.33,2.24,1.09,4.22-.18,1.46-1.74,1.59-2.78,2.14.61.75,1.5,1.19,2.21,1.83,1.6,1.42,2.9,3.56,4.69,4.65.59.36,1.31.27,1.43,1.23s-1.31,1.9-1.49,2.67c-.13.58.03,1.38-.02,1.99l2.9,5.57c.22.19.13-.44.12-.5-.09-.84-.9-3.78-.35-4.33.24-.23.81-.16,1.11-.1.37.07,2.62,1.05,2.76,1.28.64,1-.87,4.35-.46,5.89.14.54,2.37,3.35,2.88,3.94s1.91,1.51,1.62,2.38c-.83.45-1.27.97-1.83,1.71-.41.13-1.62-.59-2.13-.61-.27-.01-3.03.57-3.21.69-.57.39-.07.91-.02,1.39.14,1.34-.36,3.23-1.88,3.53-.67.13-4.21-.71-4.61-1.22-.7-.88,1.04-1.2,1.45-1.63-.82.11-1.5.29-2.34.26-2.28-.1-4.87-.98-6.96-1.88-2.45-1.05-5.36-3.26-7.68-4.07s-5.61-1.27-7.69-2.42c-.21-.11-.35-.4-.55-.46-.49-.15-1.53.02-2.12-.03-1.83-.15-7.23-1.75-8.64-2.85-.92-.71-1.33-1.62-2.45-2.35-2.72-1.76-6.51-2.35-9.5-4.27-2.19-1.4-3.08-2.23-1.07-4.48,1.73-1.93,4.22-2.31,5.76-4.03.6-.67.48-1.14.74-1.85.23-.64.54-.38.94-.57.23-.11.34-.45.73-.54.33-.07.96.05,1.15-.05s1.3-2.54,1.52-2.96c1.86-3.51,2.37-4.74,1.9-8.93-.14-1.23-.4-1.79-1.74-1.33.07.54-.12,1.05-.14,1.56-.12,2.26.53,4.21-.83,6.24l-2.44,4.38c-.65.51-.98-.06-1.46-.08-.51-.02-1.47.39-2.13.38-1.75-.04-2.05-1.37-3.62-1.51.07,1-.06,2.9-.97,3.52-.66.45-2.31.65-2.83-.04-.21-.29-.56-2.62-.5-3.03.11-.71,1.07-1.21,1.13-1.96-.34,0-.45.35-.81.36-.38.01-1.99-.68-2.08-.61-1.02,1.71-1.68,3.58-2.3,5.47-.05.16-.15.18-.29.21-2.27.43-4.92-1.16-6.84-2.25-.54-.31-2.35-1.26-2.64-1.66-.58-.78.24-.82.2-1.08-.26-.56-.7-.97-.63-1.63.03-.3.87-2.89,1.02-3.15.56-.97,1.28-.37,1.37-.46-.1-1.22-.38-2.41-.25-3.66-1.2.75-2.4,1.98-3.91,1.14.03.6-.05,1.23,0,1.83.03.36.26.68.26,1.01,0,.5-.22,1.17-.82.96-.75-.27-1.71-1-1.71-1.84v-2.34c-.59.14-.43.82-1.02,1.19-1.36.85-1.16-1.24-.81-1.95.07-.15,1.24-1.07,1.41-1.11.46-.12,1.76-.14,2.12.22l.69-2.65c-.43.62-.84.57-1.56.49-1.08-.12-2.03-.65-2.96-1.14l.1-.56.64-.05-.13-2.78c-.2-.23-1.23,1.53-1.43,1.72-.87.8-2.12.61-2.93-.2-1.13-1.15-.08-2.29-.18-3.67-1.47.02-2.84.25-4.3-.06-1.3-.28-1.58-.91-2.52-1.71-.1.72.14,1.79,0,2.46ZM42.02,42.64h-2.4c-.71,0-.99,1.52-.94,2.07.06.67.68,1.37.94,1.98s.36,1.33.65,1.88c.45.86,3.58,3.57,4.48,3.86.37.12.74.09,1.12.06.34-.29-.02-3.28.17-3.94.09-.32.9-.84,1.23-.92,1.9-.44,1.42.57,1.74,1.82.4,1.56.97,1.06,2.31,1.41-.16-.39.56-2.18.84-2.27.24-.07,1.53,1.17,1.62,1.38.29.62-.49,1.91-.29,2.25.05.09.53.11.3.4-.61.49-5.14,2.38-5.24,2.85-.18.88,3.42.7,3.98.69s1.24-.47,1.42.34c.39,1.77-.64,2.23-2.18,2.24-1.22,0-2.6-.75-2.91.97.76,1.19,2.09,1.81,3.16,2.64.45.35.8.88,1.28,1.24,1.35,1,3.27,1.44,4.27,2.92.61.02.17-4.82.18-5.37s.11-1.48.38-1.89c1-1.45,2.92-1.19,1.39.44h2.59c1.26,0,1.5-1.85,2.34-2.59.29-.26,1.04-.78,1.43-.68s1.2,1.43,1.23,1.83c.02.29-.67,1.62-.89,1.87-.91,1-2.98,1.06-3.53,2.47,1.45.57,3.07.38,4.62.39,1.29,0,2.92.08,4.17,0,1.84-.11,2.44-.57,4.31.35.45.22.62.62.8.71.26.14.82.14,1.14.19.47.5-1.46.73-1.71.76-1.29.1-2.95-.36-4.06.11-.43.18-.89.63-1.34.81-2.01.78-3.46-.19-5.17.13-.26.05-2.96.91-3.16,1.01-1.1.55-1.01,1.7-1.32,2.72-.3.96-.97,2.02-1.11,2.93-.13.84.04,1.69-.18,2.53.95.29,2.2.17,2.97-.5.42-.37,1.03-1.76,1.42-2.37.17-.27,1.33-1.87,1.48-1.89.09-.01.26.09.33.18.1.14.9,2.19.95,2.43.1.47.06,1.86.24,2.16.14.24.85-.18,1.26-.13.43.05.66.51.9.51.16,0,.57-.4.57-.45v-3.03c0-.08.21-.18.32-.2.8-.12,1.46,1.2,2.12,1.55,1.36.71,3.35.37,4.81.34.28-.1.17-.76.65-.61.18.06.17.25.16.4-.01.43-.05,1.13-.1,1.55-.12,1.03-.72,1.73.17,2.55,1.79,1.64,2.7-1.11,3.68-2.1.31-.32.81-.7.8.03-.01.42-.13.8-.1,1.3.06.92.57,1.93-.12,2.78,0,.31,2.28.89,2.68.8.52-.15.82-1.93,1.29-1.51.83.74-1.25,4.58-.27,5.71s3.57-1.8,4.12-1.27c.04.77-.05,1.57,0,2.34.05.69.54,1.57.11,2.26-.34.55-.83.08-1.13.26-.17.1-.99,2.7-1.01,3.04-.06,1,.96,1.42.25,2.46,1.24.65,2.42,1.44,3.66,2.09,1.67.87,3.2,1.83,5.19,1.39.84-1.88,1.22-4.08,2.71-5.58.57.08,1.4.55,1.91.59.59.05,1.02-.62,1.5-.13.5.98-1.02,1.95-1.07,2.6,0,.12.33,2.16.37,2.27.05.12.04.26.21.3,1.31.11,2.09.15,2.49-1.26.38-1.33-.34-3.25,1.77-2.37.79.33,1.12,1.08,1.94,1.22,1.28.22,1.87-.31,2.76-.35.41-.02.69.55,1.06.32,1.14-2.09,2.38-4.15,3.23-6.38.08-1.2-.4-4.67.08-5.6.4-.78,2.2-.9,2.57.41.7,2.48.36,6.2-.68,8.56-.3.69-.74,1.12-1.05,1.72-.25.48-1.55,3.28-1.83,3.36-.31.09-.88-.38-1.43.08-.34.28-.25.58-1.01.45-.2.74-.29,1.56-.83,2.14-1.2,1.31-2.38,1.55-3.77,2.42-.8.5-3.29,2.55-3.1,3.55.12.59,2.29,1.98,2.88,2.31,2.79,1.54,6.62,2.29,9.01,4,1.09.78,1.46,1.75,2.61,2.44,1.04.63,6.54,2.46,7.64,2.46h3.85l-.06.39-.58.24c1.1.49,2.3.7,3.44,1.05,1.35.42,3.3.89,4.52,1.42,4.6,1.97,9.01,5.84,14.46,5.75.83-.01,1.57-.33,2.52-.25.27.02,1.67.28,1.07.69-.52.35-2.19.39-2.78,1.01.89.54,3.21,1.28,4.2,1.05s1.48-1.89,1.34-2.81c-.08-.54-.67-1.21-.11-1.77.43-.44,3.55-1.02,4.2-.92.45.07,1.1.58,1.52.46.58-.43.71-1.38,1.6-1.25.03-.23-.13-.4-.25-.57-.5-.69-1.45-1.47-2.07-2.23-.48-.6-2.08-2.68-2.26-3.29-.37-1.25.55-3.53.66-4.86.02-.2.05-.39-.01-.59-.09-.3-1.51-.9-1.87-1.03-.27-.1-1.03-.46-1.2-.2-.22.34.42,3.39.45,4.1.02.37.09,2.03-.2,2.09l-.25-.13-3.6-7.01c.07-.75-.14-1.78.02-2.49.14-.6,1.22-1.6,1.43-2.12.27-.65-.95-.89-1.29-1.1-1.92-1.2-3.8-3.95-5.91-5.59-.29-.23-.93-.95-1.2-1.07-.22-.1-.89.49-1.14-.01.27-.64.16-.8,0-1.44.58-.23.92.74,1.3.73.35,0,2.19-.81,2.43-1.1.4-.49.39-1.95.28-2.57-.08-.45-1.12-2.12-1.43-2.61-.61-.96-1.35-1.86-2.01-2.79-1.16.72-.19,1.28-.19,1.71,0,.5-1.03.2-1.36.09-.81-.28-2.42-1.57-2.38-2.49.02-.46,1.23-1.66.95-2.07-2.08-.24-4.24-.19-6.31-.71-.61-.15-1.37-.21-1.37-1.01,0-.92.98-.91,1.5-1.39.15-.14.72-.99.74-1.16.05-.13-.08-.24-.19-.27-.42-.13-1.48,0-2.01-.01-1.67-.07-3.3.02-4.99-.06-2.64-1.9-5.85-2.53-8.45-4.43-.68-.5-1.62-1.5-2.27-1.9-.21-.13-2.08-.95-2.19-.92-.36.09-.54,1.03-.6,1.37-.1.02-.2.02-.3,0-.26-.04-2.28-1.56-2.47-1.83-.24-.32-1.78-4.25-1.86-4.7-.08-.42.06-.88-.12-1.27-.09-.19-1.03-.92-1.29-1.23-.39-.45-1.78-2.29-1.77-2.78,0-.3.21-.29.43-.31.75-.09,1.9.36,2.5.24.09-.02,1.26-.67,1.29-.74.1-.16.1-.5.04-.68-.05-.13-1.74-1.69-2-1.92-.99-.88-2.2-1.64-3.16-2.52-1.88-1.73-4.57-5.27-5.7-7.56-1.05-2.12-1.14-4.5-2.95-6.14-1.38-1.25-3.12-2.31-4.54-3.54l-.06-.51c.39-.02,1.63-.24,1.75-.59.25-.71-.99-3.83-1.28-4.74-.11-.37-.12-.79-.25-1.14-.19-.52-1.4-1.43-1.9-1.77-.41-.28-3.13-1.99-3.37-2.06-.68-.2-3.25-.09-4.12-.06-.54.02-2.26.34-2.62.24-.25-.07-.9-.74-1.27-.89-.44-.18-1.02-.2-1.51-.38-.4-.14-1.84-.94-1.94-.95-.56-.06-.43.84-1.76.48-2.52-.68-4.64-2.42-6.83-3.52-1.62-.82-4.87-.21-6.81-.27-.27,0-.51-.12-.75-.13-1.03-.05-2,.02-3.03-.26-.05.59-.63.54-1.14.52-2.73-.13-4.07-.96-6-2.72-.47-.43-1.47-1.76-1.92-1.88-.51-.14-1.93.22-2.7.18-1.54-.08-4.54-.99-6.09-1.49-1.14-.37-2.7-1.28-3.68-1.49-.51-.11-.88,0-1.43-.22-1.16-.44-2.97-2.11-4.04-2.9-.18-.13-.6-.24-.67-.34-.21-.3.12-1.38-.51-2.27s-.64-.44-1.35-.54c-2.25-.29-2.57-2.13-4.14-2.82-2.79-1.21-6.13-1.6-8.96-2.79-.43-.29-.47-1.61-1.05-1.86s-2.97,1.05-3.7,1.16-2.28-.17-2.88.03c-.29.1-.29.82-.93.96s-3.53-.3-3.83.15c-.06.1.3.37-.07.62-.21.14-1.37.4-1.69.46-1.28.23-2.65.28-3.92.25.12.71.2,1.53.45,2.21s.84,1.35,1.11,2.05c.3.78.37,1.68.53,2.5l2.59.63c.1.65-.88.66-.87,1.32,0,.25.72,1.11.94,1.33.47.47,1.23.84,1.63,1.4.61.83,1.04,2.08,1.78,2.89l1.58,3.41c1.65-.24,1.9-2.44,2.83-3.41.21-.22,1.55-1.47,1.72-1.56,1.13-.64,2.11.64,2.62,1.53.34.59.5,1.01.41,1.72-.87.38-1.83.64-2.4,1.47.58.06,1.26.22,1.83.25,2.06.12,3.93-.52,5.88-1.07.84-.23,1-.66,2.18-.42.84.17,3.16,1.61,3.82,2.24.74.71,2.62,3.2,2.31,4.21-.07.22-1.43.78-1.72.82-1.35.2-2.51-1.8-3.5-2.63s-1.53-.82-2.78-.89c-1.85-.1-3.26.11-5,.57-.61.47-2.98.72-3.37,1.12-.21.22-.36.96-.67,1.23,1.29,0,3.07-.1,3.43,1.5,1.75-.22,3.32.84,4.51,2-.63.84-.91,1.83-1.4,2.73-.58,1.08-1.51,2.42-2.19,3.49-.31.48-1.25,1.53-1.38,1.91-.12.36,1.02,1.23,1.37,1.41s.73.32,1.13.33c2.66-2.1,5.26-4.56,8.93-4.4.2.66-.84,1.05-1.01,1.45-.09.21.08.17.16.22,1.52.93,2.87-1.23,4.45-1.05,1.41.16-.48,1.45-.55,1.61-.1.25-.44,1.75-.42,1.99l.04.16c.63.24,1.16,1.27,1.75,1.47.43.15,2.14.12,2.51-.13.69-.46.5-2.54.88-3.16.3-.48,1.57-.62,2.09-.56.86.09.92.68,1.23.8.39.16.84.02,1.24.14.69.21.83,1.15.88,1.77.03.32.08,1.75-.19,1.84ZM85.15,88.49c.22-.63-.25-1.25-.26-1.84,0-.28.14-.54.14-.76-.02-.68-.26-1.34-.06-2.08-.21-.42-1.47-.45-1.87-.35-.11.03-1.16.82-1.2.88-.05.09-.2,1.19-.16,1.23.83-.17.37-1.41,1.45-1.4,1.34,0-.02,2.62.94,3.61.25.26.72.45,1.01.69Z"/>
  <path d="M74.44,82.28c-.09-.15.07-.54-.14-.68l-.95-.06c-.1,1.74-1.92.22-1.96-.57-.01-.2.15-.42.1-.6-.08-.33-.82-.52-.53-1.19.07-.16.29-.1.31-.34.06-1.02-.63-2.38-.12-3.46.63-.39,1.6.46,1.69.46.11,0,1.3-.73,2-.7,1.28.07,1.47,2.07,1.33,3.04-.1.71-.7,1.36-.05,2.09,1.18-1.41,1.65.71,1.43,1.68-.14.6-.91.83-1.44.83-.25,0-1.59-.38-1.67-.51ZM76.91,82.02c.22-.24.01-1.16-.03-1.49-.2-.25-.3.16-.53.23s-.56.08-.74-.1c-.95-1.46.87-3.33-.37-4.69-.73-.81-1.85.43-2.4.39-.42-.03-.74-.6-1.21-.5-.21,1.23.47,2.63-.13,3.72.96.49-.06,1.76,1.27,2.09-.32-1.09,1.68-.8,1.99-.48.18.18.07.63.23.74.34.25,1.6.43,1.91.08Z"/>
  <path d="M86.12,89.68c.49.27,1.04,1.39.56,1.92-.84-.08-1.8.41-2.57.28-1.27-.22-1.91-2.09-2.23-3.17l.66-.44,1.53,1.21c.36-.41,1.62-.03,2.04.2ZM86.29,91.14c.11-.79-.97-1.32-1.63-1.33-.19,0-.29.17-.46.19-.81.09-.91-.75-1.57-1.01.11.84.88,2.4,1.83,2.41.49,0,1.21-.46,1.83-.26Z"/>
  <path d="M80.71,86.32l-.74-.11c-.07,1-.68,2.09-1.63,1.07-.52-.56-.18-.86-.26-1.37-.07-.45-.85-.88-.51-1.38,1.38-.86,4.29-.31,3.15,1.79ZM80.35,85.71c.3-1.17-1.52-1.14-2.27-.88.87.67.11,1.7.95,2.27.23.06.19-.09.25-.25.2-.61.1-1.59,1.08-1.14Z"/>
</svg>